<svg xmlns="http://www.w3.org/2000/svg" viewBox="0 0 512 512">
  <path fill="#E34F26" d="M71 460L30.35 0h451.3L440.93 460 255.77 512z"/>
  <path fill="#EF652A" d="M256 472.62L404.21 431.3 440.93 38.3H256z"/>
  <path fill="#EBEBEB" d="M256 208.96h-75.4l-5.2-58.58H256V92.83H114.83l1.37 15.33 14.06 157.6H256z"/>
  <path fill="#FFF" d="M256 355.46l-.2.06-50.57-13.66-3.23-36.22h-34.03l6.36 71.3 93.07 25.83.2-.06z"/>
  <path fill="#EBEBEB" d="M255.83 208.96v57.55h-68.02l-5.73-57.55zm0 146.56v-57.66l-.2.06-50.56-13.66-3.24-36.22h-34.03l6.36 71.3 93.07 25.83.2-.06z"/>
  <path fill="#FFF" d="M397.15 150.38H255.83v57.55h134.69zm-7.27 70.85H255.83v57.55h76.3l-7.2 80.59-69.1 18.65v57.66l127.05-35.2.93-10.47 14.58-163.45 1.51-17.08z"/>
</svg>
